inDegrees=yes
name=ik_lifting_orientations
DataType=double
version=3
OpenSimVersion=4.5-2024-01-10-34fd6af
endheader
time	pelvis_tilt	pelvis_list	pelvis_rotation	pelvis_tx	pelvis_ty	pelvis_tz	hip_flexion_r	hip_adduction_r	hip_rotation_r	knee_angle_r	knee_angle_r_beta	ankle_angle_r	subtalar_angle_r	mtp_angle_r	hip_flexion_l	hip_adduction_l	hip_rotation_l	knee_angle_l	knee_angle_l_beta	ankle_angle_l	subtalar_angle_l	mtp_angle_l	lumbar_extension	lumbar_bending	lumbar_rotation	arm_flex_r	arm_add_r	arm_rot_r	elbow_flex_r	pro_sup_r	wrist_flex_r	wrist_dev_r	arm_flex_l	arm_add_l	arm_rot_l	elbow_flex_l	pro_sup_l	wrist_flex_l	wrist_dev_l
1.79	1.920139238631272	-0.5056958526851054	-57.86527161465097	0	0.9399999998679526	0	45.00124234816763	-10.25543675782905	0	59.85002966477452	1.044580075066593	-5.069226254061999	0	0	45.00124234816763	-10.25543675782905	0	59.85002966477452	1.044580075066593	-5.069226254061999	0	0	-3.977312173202829	0.3671979156343504	-33.44681220970248	75.33876089748969	32.46234338055267	26.68113549450663	80.56436957576106	2.102705904128631	0	0	0	-11.12481665760603	0	87.92662837268557	2.102705904128631	0	0
1.8	1.954102482853345	-0.521273941135187	-58.67673237803236	0	0.9399999998679526	0	45.00124200928714	-10.25519290026301	0	59.85006176586098	1.044580635336246	-5.069140024344182	0	0	45.00124200928714	-10.25519290026301	0	59.85006176586098	1.044580635336246	-5.069140024344182	0	0	-3.554197497707863	0.05744684002815523	-32.88844369250661	75.5538032207581	33.76318734272825	26.48242298377652	80.62932384011447	2.102306786451206	0	0	0	-11.12535808967139	0	87.92702188402362	2.102306786451206	0	0
1.81	1.906743692989087	-0.5242529980844028	-59.60551262648996	0	0.9399999998679526	0	45.00124132826799	-10.254706670121	0	59.85012664140111	1.044581767628025	-5.0689683868827	0	0	45.00124132826799	-10.254706670121	0	59.85012664140111	1.044581767628025	-5.0689683868827	0	0	-3.440375978999608	-0.0220758146155681	-32.25446737549441	76.07545519680191	34.72672487117094	26.22470904512659	79.88696238487627	2.101502900067381	0	0	0	-11.12645068952273	0	87.92781447848304	2.101502900067381	0	0
1.82	1.714432320573806	-0.5249552080799575	-62.10985724392862	0	0.9399999998679526	0	45.001239891483	-10.25368408022655	0	59.85026325182698	1.044584151929749	-5.068608132303539	0	0	45.001239891483	-10.25368408022655	0	59.85026325182698	1.044584151929749	-5.068608132303539	0	0	-3.217468304211767	-0.02969316301704969	-30.04874099865269	76.71740490948166	35.52074778636545	25.76395824484145	77.74641356594599	2.099807458150561	0	0	0	-11.12875379437683	0	87.92948610504703	2.099807458150561	0	0
1.83	1.564994836151085	-0.5160240715406326	-63.82978885215645	0	0.9399999998679526	0	45.00123926554553	-10.25323878461682	0	59.85032286713478	1.044585192413155	-5.068451211229796	0	0	45.00123926554553	-10.25323878461682	0	59.85032286713478	1.044585192413155	-5.068451211229796	0	0	-2.962849725451757	-0.05509887611121077	-28.64311851871442	77.30805415030881	36.34840704733475	25.33467326301827	77.17332484775525	2.099068372033104	0	0	0	-11.12975844017716	0	87.93021480949126	2.099068372033104	0	0
1.84	1.414358839674994	-0.5269271322766645	-65.54837194285098	0	0.9399999998679526	0	45.001238739607	-10.2528653240743	0	59.85037299304447	1.044586067275319	-5.0683196859599	0	0	45.001238739607	-10.2528653240743	0	59.85037299304447	1.044586067275319	-5.0683196859599	0	0	-2.358300837729304	-0.2927137387931913	-27.10429523741456	76.97289420699197	36.98655417834561	25.32584290887499	77.42198502061258	2.098447134199176	0	0	0	-11.13060312806502	0	87.93082732104192	2.098447134199176	0	0
1.85	1.200562081917492	-0.5053963575058257	-67.90519704783877	0	0.9399999998679526	0	45.00123782953236	-10.25222460668676	0	59.85045994261989	1.044587584831693	-5.068094714442018	0	0	45.00123782953236	-10.25222460668676	0	59.85045994261989	1.044587584831693	-5.068094714442018	0	0	-1.881005356695071	-0.3440924322852713	-24.95168358379833	76.90534924146596	37.53162509360375	25.29225706279462	76.79069471076329	2.097370747863583	0	0	0	-11.13206789725866	0	87.93188858789588	2.097370747863583	0	0
1.86	1.102761439718535	-0.5245830344159321	-70.44126876741893	0	0.9399999998679526	0	45.00123700470973	-10.2516376342983	0	59.85053823981526	1.044588951375548	-5.067888058871266	0	0	45.00123700470973	-10.2516376342983	0	59.85053823981526	1.044588951375548	-5.067888058871266	0	0	-1.911009038726997	-0.2958466997233496	-22.65505219072529	77.66588987165528	37.62512530679637	24.68412115068893	75.73858775498437	2.096397696618557	0	0	0	-11.13338939858716	0	87.93284797099319	2.096397696618557	0	0
